<svg width="390" height="47.00000000000001" xmlns="http://www.w3.org/2000/svg">
 <defs>
  <clipPath id="clip0_57_5554">
   <rect id="svg_1" fill="white" height="47" width="390"/>
  </clipPath>
 </defs>
 <g>
  <title>background</title>
  <rect fill="#191919" id="canvas_background" height="49" width="392" y="-1" x="-1"/>
 </g>
 <g>
  <title>Layer 1</title>
  <g id="svg_2" clip-path="url(#clip0_57_5554)">
   <path id="svg_3" fill="black" d="m118.26,-1l153.432,0l0,15c0,9.3888 -7.563,17 -16.892,17l-119.648,0c-9.329,0 -16.892,-7.6112 -16.892,-17l0,-15z"/>
   <path id="svg_4" fill="black" d="m118.49,-1l-1.49,-1c2.634,0 1.291,3.14875 1.291,5.79934c0,0.06722 -0.001,0.13411 -0.004,0.20066l0.203,0l0,-5z"/>
   <path id="svg_5" fill="black" d="m271.51,-1l1.49,-1c-2.634,0 -1.291,3.14875 -1.291,5.79934c0,0.06722 0.001,0.13411 0.004,0.20066l-0.203,0l0,-5z"/>
   <path id="svg_6" fill="white" d="m41.8786,19.7231c-2.5981,0 -4.4492,1.7764 -4.4492,4.2085l0,0.0166c0,2.2745 1.6103,3.9512 3.9097,3.9512c1.6435,0 2.6894,-0.8384 3.1293,-1.7847l0.1661,0c0,0.0914 -0.0083,0.1827 -0.0083,0.274c-0.0913,2.291 -0.8965,4.1504 -2.7974,4.1504c-1.0542,0 -1.793,-0.5479 -2.1084,-1.3863l-0.0249,-0.083l-2.1084,0l0.0166,0.0913c0.3818,1.8345 2.0254,3.1377 4.2251,3.1377c3.0132,0 4.8311,-2.3906 4.8311,-6.4248l0,-0.0166c0,-4.3164 -2.2247,-6.1343 -4.7813,-6.1343zm-0.0083,6.5328c-1.3613,0 -2.3491,-0.9961 -2.3491,-2.3824l0,-0.0166c0,-1.3364 1.0542,-2.3906 2.374,-2.3906c1.3281,0 2.3657,1.0708 2.3657,2.4404l0,0.0166c0,1.3531 -1.0376,2.3326 -2.3906,2.3326zm8.1501,-2.0171c0.7637,0 1.3198,-0.5811 1.3198,-1.3116c0,-0.7387 -0.5561,-1.3115 -1.3198,-1.3115c-0.7554,0 -1.3198,0.5728 -1.3198,1.3115c0,0.7305 0.5644,1.3116 1.3198,1.3116zm0,6.1591c0.7637,0 1.3198,-0.5727 1.3198,-1.3115c0,-0.7387 -0.5561,-1.3115 -1.3198,-1.3115c-0.7554,0 -1.3198,0.5728 -1.3198,1.3115c0,0.7388 0.5644,1.3115 1.3198,1.3115zm9.1711,1.6021l2.0503,0l0,-2.2993l1.6104,0l0,-1.7681l-1.6104,0l0,-7.9106l-3.0298,0c-1.6269,2.4736 -3.3286,5.2295 -4.8808,7.9272l0,1.7515l5.8603,0l0,2.2993zm-3.8682,-4.0176l0,-0.1245c1.1622,-2.0337 2.5484,-4.25 3.7769,-6.126l0.1245,0l0,6.2505l-3.9014,0zm12.0847,4.0176l2.1416,0l0,-11.978l-2.1333,0l-3.1294,2.1997l0,2.0171l2.98,-2.1084l0.1411,0l0,9.8696z"/>
   <path id="svg_7" stroke-width="1.05509" stroke="white" d="m336.528,23c0,-1.9178 1.554,-3.4725 3.472,-3.4725l17,0c1.918,0 3.472,1.5547 3.472,3.4725l0,5c0,1.9178 -1.554,3.4725 -3.472,3.4725l-17,0c-1.918,0 -3.472,-1.5547 -3.472,-3.4725l0,-5z" opacity="0.35"/>
   <path id="svg_8" fill="white" d="m362,24l0,4.2203c0.849,-0.3574 1.401,-1.1889 1.401,-2.1101c0,-0.9213 -0.552,-1.7528 -1.401,-2.1102z" opacity="0.4"/>
   <path id="svg_9" fill="white" d="m338,23c0,-1.1046 0.895,-2 2,-2l11,0c1.105,0 2,0.8954 2,2l0,5c0,1.1046 -0.895,2 -2,2l-11,0c-1.105,0 -2,-0.8954 -2,-2l0,-5z"/>
   <path id="svg_10" fill="white" d="m320.5,22.5875c2.467,0.0001 4.839,0.9676 6.627,2.7023c0.134,0.1339 0.35,0.1323 0.482,-0.0038l1.287,-1.3255c0.067,-0.069 0.105,-0.1625 0.104,-0.2597c-0.001,-0.0973 -0.039,-0.1903 -0.107,-0.2585c-4.692,-4.5897 -12.094,-4.5897 -16.786,0c-0.068,0.0682 -0.106,0.1611 -0.107,0.2584c-0.001,0.0972 0.037,0.1907 0.104,0.2598l1.287,1.3255c0.132,0.1363 0.348,0.138 0.482,0.0038c1.788,-1.7349 4.161,-2.7023 6.627,-2.7023zm0.036,4.0019c1.355,-0.0001 2.662,0.5141 3.667,1.4426c0.135,0.1318 0.349,0.1289 0.482,-0.0065l1.285,-1.3255c0.068,-0.0696 0.105,-0.1639 0.104,-0.2619c-0.001,-0.098 -0.04,-0.1915 -0.109,-0.2597c-3.059,-2.9045 -7.796,-2.9045 -10.856,0c-0.069,0.0682 -0.108,0.1617 -0.109,0.2598c-0.001,0.098 0.037,0.1923 0.105,0.2618l1.285,1.3255c0.132,0.1354 0.346,0.1383 0.482,0.0065c1.004,-0.9279 2.31,-1.4421 3.664,-1.4426zm2.614,2.5873c0.002,0.0983 -0.036,0.1931 -0.105,0.2619l-2.223,2.2903c-0.066,0.0673 -0.154,0.1051 -0.247,0.1051c-0.093,0 -0.182,-0.0378 -0.247,-0.1051l-2.223,-2.2903c-0.069,-0.0689 -0.107,-0.1637 -0.105,-0.262c0.002,-0.0983 0.044,-0.1913 0.115,-0.2572c1.42,-1.2259 3.5,-1.2259 4.92,0c0.071,0.0659 0.113,0.159 0.115,0.2573z" clip-rule="evenodd" fill-rule="evenodd"/>
   <path id="svg_11" fill="white" d="m296,23c0,-0.5523 0.448,-1 1,-1l1,0c0.552,0 1,0.4477 1,1l0,8c0,0.5523 -0.448,1 -1,1l-1,0c-0.552,0 -1,-0.4477 -1,-1l0,-8z"/>
   <path id="svg_12" fill="white" d="m301,21c0,-0.5523 0.448,-1 1,-1l1,0c0.552,0 1,0.4477 1,1l0,10c0,0.5523 -0.448,1 -1,1l-1,0c-0.552,0 -1,-0.4477 -1,-1l0,-10z"/>
   <path id="svg_13" fill="white" d="m291,26.5c0,-0.5523 0.448,-1 1,-1l1,0c0.552,0 1,0.4477 1,1l0,4.5c0,0.5523 -0.448,1 -1,1l-1,0c-0.552,0 -1,-0.4477 -1,-1l0,-4.5z"/>
   <path id="svg_14" fill="white" d="m286,29c0,-0.5523 0.448,-1 1,-1l1,0c0.552,0 1,0.4477 1,1l0,2c0,0.5523 -0.448,1 -1,1l-1,0c-0.552,0 -1,-0.4477 -1,-1l0,-2z"/>
  </g>
 </g>
</svg>