<svg width="390" height="97" xmlns="http://www.w3.org/2000/svg">
 <defs>
  <clipPath id="clip0_208_15295">
   <rect width="35" height="35" fill="white" y="39" x="108.5" id="svg_1"/>
  </clipPath>
  <clipPath id="clip1_208_15295">
   <rect width="35" height="35" fill="white" y="39" x="177.5" id="svg_2"/>
  </clipPath>
  <clipPath id="clip2_208_15295">
   <rect width="35" height="35" fill="white" y="39" x="246.5" id="svg_3"/>
  </clipPath>
  <clipPath id="clip3_208_15295">
   <rect width="35" height="35" fill="white" y="39" x="315.5" id="svg_4"/>
  </clipPath>
  <clipPath id="clip4_208_15295">
   <rect width="35" height="35" fill="white" y="39" x="315.5" id="svg_5"/>
  </clipPath>
  <clipPath id="clip5_208_15295">
   <rect width="35" height="35" fill="white" y="27" x="40" id="svg_6"/>
  </clipPath>
 </defs>
 <g>
  <title>background</title>
  <rect x="-1" y="-1" width="392" height="99" id="canvas_background" fill="#000000"/>
 </g>
 <g>
  <title>Layer 1</title>
  <g id="svg_7">
   <circle cx="57.4873" cy="46" r="35" fill="#171717" id="svg_8"/>
   <path d="m0.48731,53c0,-16.5685 13.43149,-30 29.99999,-30l329.9997,0c16.569,0 30,13.4315 30,30l0,44l-389.9997,0l0,-44l0.00001,0z" fill="#171717" id="svg_9"/>
  </g>
  <g clip-path="url(#clip0_208_15295)" id="svg_10">
   <path d="m139.125,60.875c0,0.7735 -0.307,1.5154 -0.854,2.0624c-0.547,0.547 -1.289,0.8543 -2.063,0.8543l-17.5,0l-5.833,5.8333l0,-23.3333c0,-0.7736 0.307,-1.5154 0.854,-2.0624c0.547,-0.547 1.289,-0.8543 2.063,-0.8543l20.416,0c0.774,0 1.516,0.3073 2.063,0.8543c0.547,0.547 0.854,1.2888 0.854,2.0624l0,14.5833z" stroke="#EBEBEB" stroke-width="2.1875" stroke-linecap="round" stroke-linejoin="round" id="svg_11"/>
  </g>
  <g clip-path="url(#clip1_208_15295)" id="svg_12">
   <path d="m212.5,57.357c-0.056,3.9792 -1.749,8.2402 -5.3,11.7158c-2.504,2.452 -5.515,3.9874 -8.978,4.6165c-3.803,0.6906 -7.469,0.2394 -10.946,-1.4486c-3.43,-1.6649 -6.019,-4.2112 -7.781,-7.5722c-1.466,-2.7973 -2.115,-5.7877 -1.977,-8.9296c0.194,-4.4287 1.795,-8.2926 4.907,-11.4945c2.762,-2.8416 6.139,-4.5263 10.081,-5.0657c3.588,-0.491 7.03,0.0232 10.282,1.6236c3.362,1.6539 5.928,4.1386 7.69,7.4259c1.369,2.5546 2.03,5.2888 2.022,9.1288zm-17.78,9.5662c0.056,-0.1526 0.087,-0.2287 0.112,-0.307c0.769,-2.4673 1.539,-4.9344 2.303,-7.4036c0.053,-0.1711 0.133,-0.2614 0.311,-0.3152c1.579,-0.477 3.154,-0.9645 4.73,-1.4498c0.998,-0.3072 1.995,-0.6159 3.038,-0.938c-0.128,-0.049 -0.212,-0.0865 -0.299,-0.1133c-2.486,-0.7657 -4.971,-1.5331 -7.46,-2.2897c-0.19,-0.0577 -0.268,-0.153 -0.323,-0.3309c-0.764,-2.4689 -1.535,-4.9356 -2.305,-7.4026c-0.024,-0.0752 -0.055,-0.1479 -0.103,-0.2743c-0.045,0.1247 -0.07,0.1866 -0.09,0.2501c-0.77,2.4672 -1.542,4.934 -2.307,7.4029c-0.06,0.1949 -0.15,0.2994 -0.358,0.3626c-2.351,0.7134 -4.698,1.4396 -7.046,2.1629c-0.217,0.0667 -0.432,0.1371 -0.7,0.2223c0.129,0.0438 0.199,0.0699 0.271,0.092c2.478,0.762 4.955,1.5266 7.436,2.2799c0.23,0.07 0.339,0.1821 0.408,0.4118c0.364,1.2134 0.749,2.4208 1.127,3.63c0.41,1.3132 0.822,2.6262 1.255,4.0099z" fill="#EBEBEB" id="svg_13"/>
  </g>
  <g clip-path="url(#clip2_208_15295)" id="svg_14">
   <path d="m275.667,69.625l0,-2.9167c0,-1.5471 -0.615,-3.0308 -1.709,-4.1248c-1.094,-1.0939 -2.577,-1.7085 -4.125,-1.7085l-11.666,0c-1.547,0 -3.031,0.6146 -4.125,1.7085c-1.094,1.094 -1.709,2.5777 -1.709,4.1248l0,2.9167" stroke="#EBEBEB" stroke-width="2.1875" stroke-linecap="round" stroke-linejoin="round" id="svg_15"/>
   <path d="m264,55.0417c3.221,0 5.833,-2.6117 5.833,-5.8334c0,-3.2216 -2.612,-5.8333 -5.833,-5.8333c-3.222,0 -5.833,2.6117 -5.833,5.8333c0,3.2217 2.611,5.8334 5.833,5.8334z" stroke="#EBEBEB" stroke-width="2.1875" stroke-linecap="round" stroke-linejoin="round" id="svg_16"/>
  </g>
  <g clip-path="url(#clip3_208_15295)" id="svg_17">
   <g clip-path="url(#clip4_208_15295)" id="svg_18">
    <circle cx="333" cy="56.5" r="16.4062" stroke="#EBEBEB" stroke-width="2.1875" id="svg_19"/>
    <path d="m333,57.5936c0.705,0 1.276,-0.5713 1.276,-1.2761c0,-0.7047 -0.571,-1.276 -1.276,-1.276c-0.705,0 -1.276,0.5713 -1.276,1.276c0,0.7048 0.571,1.2761 1.276,1.2761z" stroke="#EBEBEB" stroke-width="2.1875" stroke-linecap="round" stroke-linejoin="round" id="svg_20"/>
    <path d="m341.932,57.5936c0.705,0 1.276,-0.5713 1.276,-1.2761c0,-0.7047 -0.571,-1.276 -1.276,-1.276c-0.704,0 -1.276,0.5713 -1.276,1.276c0,0.7048 0.572,1.2761 1.276,1.2761z" stroke="#EBEBEB" stroke-width="2.1875" stroke-linecap="round" stroke-linejoin="round" id="svg_21"/>
    <path d="m324.068,57.5936c0.704,0 1.276,-0.5713 1.276,-1.2761c0,-0.7047 -0.572,-1.276 -1.276,-1.276c-0.705,0 -1.276,0.5713 -1.276,1.276c0,0.7048 0.571,1.2761 1.276,1.2761z" stroke="#EBEBEB" stroke-width="2.1875" stroke-linecap="round" stroke-linejoin="round" id="svg_22"/>
   </g>
  </g>
  <g clip-path="url(#clip5_208_15295)" id="svg_23">
   <path fill-rule="evenodd" clip-rule="evenodd" d="m43.2538,39.9613c-0.4557,1.4315 -0.7016,2.9564 -0.7016,4.5389c0,7.8876 6.1094,14.3484 13.8542,14.9085l0,-9.1776c-2.6988,-0.5119 -4.7396,-2.8831 -4.7396,-5.7309c0,-0.4565 0.0525,-0.9008 0.1517,-1.3271l-8.5647,-3.2118zm15.3401,10.2698l0,9.1776c7.7449,-0.5601 13.8542,-7.0209 13.8542,-14.9085c0,-1.5825 -0.2459,-3.1074 -0.7016,-4.5389l-8.5646,3.2118c0.0992,0.4263 0.1516,0.8706 0.1516,1.3271c0,2.8478 -2.0407,5.219 -4.7396,5.7309zm-1.0937,-20.6789c5.8985,0 10.9991,3.4166 13.4307,8.3787l-8.6401,3.2401c-1.0538,-1.5136 -2.8065,-2.5042 -4.7906,-2.5042c-1.9841,0 -3.7369,0.9906 -4.7907,2.5042l-8.6401,-3.2401c2.4316,-4.9621 7.5322,-8.3787 13.4308,-8.3787zm0,11.3021c1.0356,0 1.9705,0.4319 2.6342,1.1253l-0.1016,0.0381l0.7681,2.0482l0.3041,-0.114c0.027,0.1788 0.041,0.3619 0.041,0.5483c0,2.0135 -1.6323,3.6458 -3.6458,3.6458c-2.0136,0 -3.6459,-1.6323 -3.6459,-3.6458c0,-0.1864 0.014,-0.3695 0.041,-0.5483l0.3042,0.114l0.768,-2.0482l-0.1015,-0.0381c0.6637,-0.6934 1.5985,-1.1253 2.6342,-1.1253zm-17.1355,3.6459c0,-9.4637 7.6718,-17.1355 17.1355,-17.1355c9.4636,0 17.1354,7.6718 17.1354,17.1355c0,9.4636 -7.6718,17.1354 -17.1354,17.1354c-9.4637,0 -17.1355,-7.6718 -17.1355,-17.1354z" fill="#665CD1" id="svg_24"/>
  </g>
 </g>
</svg>